name Walk5.mot
datacolumns 19
datarows 15
range 2.04500000 2.11500000
endheader

                time	   L_ground_force_vx	   L_ground_force_vy	   L_ground_force_vz	   L_ground_force_px	   L_ground_force_py	   L_ground_force_pz	   R_ground_force_vx	   R_ground_force_vy	   R_ground_force_vz	   R_ground_force_px	   R_ground_force_py	   R_ground_force_pz	   L_ground_torque_x	   L_ground_torque_y	   L_ground_torque_z	   R_ground_torque_x	   R_ground_torque_y	   R_ground_torque_z	
          2.04500000	          0.13280250	          0.38952408	         -0.00667475	         -0.00007727	          0.00000000	          0.00000999	        -15.73459421	        637.54702786	        -41.89307279	          0.16587052	          0.00000000	          0.07321856	          0.00000000	          0.00001368	          0.00000000	          0.00000000	          8.25024176	          0.00000000	
          2.05000000	          0.10212090	          0.33611136	         -0.00511204	         -0.00018120	          0.00000000	         -0.00004245	        -13.60565822	        634.71503398	        -41.62505658	          0.16790569	          0.00000000	          0.07336195	          0.00000000	          0.00001442	          0.00000000	          0.00000000	          8.04967802	          0.00000000	
          2.05500000	          0.07436886	          0.27527648	         -0.00370561	         -0.00023352	          0.00000000	         -0.00007272	        -11.48969668	        632.68362661	        -41.54964507	          0.16991804	          0.00000000	          0.07349117	          0.00000000	          0.00001375	          0.00000000	          0.00000000	          7.84370603	          0.00000000	
          2.06000000	          0.05069033	          0.21449320	         -0.00251062	         -0.00024860	          0.00000000	         -0.00008638	         -9.40731621	        631.33388770	        -41.64252113	          0.17192033	          0.00000000	          0.07360577	          0.00000000	          0.00001224	          0.00000000	          0.00000000	          7.63346090	          0.00000000	
          2.06500000	          0.03149676	          0.15855024	         -0.00154574	         -0.00023861	          0.00000000	         -0.00008831	         -7.38313174	        630.55646088	        -41.87085101	          0.17392577	          0.00000000	          0.07370443	          0.00000000	          0.00001030	          0.00000000	          0.00000000	          7.41996699	          0.00000000	
          2.07000000	          0.01669728	          0.11013570	         -0.00080473	         -0.00021333	          0.00000000	         -0.00008256	         -5.44083084	        630.26217887	        -42.19639465	          0.17594740	          0.00000000	          0.07378574	          0.00000000	          0.00000824	          0.00000000	          0.00000000	          7.20368796	          0.00000000	
          2.07500000	          0.00588611	          0.07037799	         -0.00026589	         -0.00018025	          0.00000000	         -0.00007235	         -3.60018035	        630.39138178	        -42.57902593	          0.17799618	          0.00000000	          0.07384882	          0.00000000	          0.00000627	          0.00000000	          0.00000000	          6.98445220	          0.00000000	
          2.08000000	         -0.00151240	          0.03931610	          0.00010068	         -0.00014478	          0.00000000	         -0.00006007	         -1.87644726	        630.91961239	        -42.98098993	          0.18007926	          0.00000000	          0.07389328	          0.00000000	          0.00000451	          0.00000000	          0.00000000	          6.76137844	          0.00000000	
          2.08500000	         -0.00613732	          0.01628728	          0.00032780	         -0.00011058	          0.00000000	         -0.00004745	         -0.27938618	        631.85623506	        -43.36994737	          0.18220131	          0.00000000	          0.07391926	          0.00000000	          0.00000302	          0.00000000	          0.00000000	          6.53302566	          0.00000000	
          2.09000000	         -0.00861779	          0.00023121	          0.00044752	         -0.00007991	          0.00000000	         -0.00003561	          1.18797947	        633.23681551	        -43.72054448	          0.18436507	          0.00000000	          0.07392632	          0.00000000	          0.00000183	          0.00000000	          0.00000000	          6.29779476	          0.00000000	
          2.09500000	         -0.00952691	         -0.01008352	          0.00048890	         -0.00005392	          0.00000000	         -0.00002519	          2.52937175	        635.11108795	        -44.01489323	          0.18656871	          0.00000000	          0.07391381	          0.00000000	          0.00000092	          0.00000000	          0.00000000	          6.05417915	          0.00000000	
          2.10000000	         -0.00935645	         -0.01590067	          0.00047677	         -0.00003298	          0.00000000	         -0.00001652	          3.75428806	        637.53304979	        -44.24164526	          0.18880679	          0.00000000	          0.07388125	          0.00000000	          0.00000027	          0.00000000	          0.00000000	          5.80054707	          0.00000000	
          2.10500000	         -0.00850715	         -0.01837354	          0.00043128	         -0.00001695	          0.00000000	         -0.00000966	          4.87665504	        640.55383555	        -44.39513908	          0.19107301	          0.00000000	          0.07383005	          0.00000000	         -0.00000017	          0.00000000	          0.00000000	          5.53521128	          0.00000000	
          2.11000000	         -0.00728970	         -0.01850623	          0.00036801	         -0.00000533	          0.00000000	         -0.00000449	          5.91437288	        644.20959313	        -44.47599428	          0.19335931	          0.00000000	          0.07376302	          0.00000000	         -0.00000044	          0.00000000	          0.00000000	          5.25719219	          0.00000000	
          2.11500000	         -0.00593245	         -0.01712769	          0.00029832	          0.00000254	          0.00000000	         -0.00000082	          6.88858998	        648.51157315	        -44.49057930	          0.19565450	          0.00000000	          0.07368237	          0.00000000	         -0.00000058	          0.00000000	          0.00000000	          4.96631800	          0.00000000	
